# This file uses centimeters as units for non-parametric coordinates.

mtllib Building_Low.mtl
g default
v -7.500000 -10.000000 7.500000
v 7.500000 -10.000000 7.500000
v -7.500000 30.000000 7.500000
v 7.500000 30.000000 7.500000
v -7.500000 30.000000 -7.500000
v 7.500000 30.000000 -7.500000
v -7.500000 -10.000000 -7.500000
v 7.500000 -10.000000 -7.500000
v -7.500003 -9.999983 7.500000
v 7.500003 -9.999983 7.500000
v 7.500003 30.000000 7.500000
v -7.500003 30.000000 7.500000
v -7.500000 11.351848 7.500000
v -7.500000 11.351848 -7.500000
v 7.500000 11.351848 -7.500000
v 7.500000 11.351848 7.500000
v 7.500000 11.351848 7.500000
v -7.500000 11.351848 7.500000
v 7.500000 15.900477 -3.841228
v 7.500000 15.900477 3.841228
v 7.500000 25.451373 -3.841228
v 7.500000 25.451373 3.841228
v 4.889312 15.900477 -3.841228
v 4.889312 15.900477 3.841228
v 4.889312 25.451373 -3.841228
v 4.889312 25.451373 3.841228
v 7.500000 -5.215873 -4.139075
v 7.500000 -5.215873 4.139075
v 7.500000 6.567720 -4.139075
v 7.500000 6.567720 4.139075
v 4.973056 -5.215873 -4.139075
v 4.973056 -5.215873 4.139075
v 4.973056 6.567720 -4.139075
v 4.973056 6.567720 4.139075
v -4.109171 6.525148 -7.500000
v 4.109171 6.525148 -7.500000
v 4.109171 -5.173299 -7.500000
v -4.109171 -5.173299 -7.500000
v -4.109171 6.525148 -5.505893
v 4.109171 6.525148 -5.505893
v 4.109171 -5.173299 -5.505893
v -4.109171 -5.173299 -5.505893
v -4.189883 25.884827 -7.500000
v 4.189883 25.884827 -7.500000
v 4.189883 15.467020 -7.500000
v -4.189883 15.467020 -7.500000
v -4.189883 25.884827 -5.828739
v 4.189883 25.884827 -5.828739
v 4.189883 15.467020 -5.828739
v -4.189883 15.467020 -5.828739
v -7.500000 15.451998 4.201967
v -7.500000 15.451998 -4.201967
v -7.500000 25.899850 4.201967
v -7.500000 25.899850 -4.201967
v -6.048100 15.451998 4.201967
v -6.048100 15.451998 -4.201967
v -6.048100 25.899850 4.201967
v -6.048100 25.899850 -4.201967
v -7.500000 -6.683810 -5.170324
v -7.500000 -6.683810 5.170324
v -7.500000 8.035657 5.170324
v -7.500000 8.035657 -5.170324
v -5.992375 -6.683810 -5.170324
v -5.992375 -6.683810 5.170324
v -5.992375 8.035657 5.170324
v -5.992375 8.035657 -5.170324
v 4.060096 15.628378 7.500000
v -4.060096 15.628378 7.500000
v 4.060096 25.723469 7.500000
v -4.060096 25.723469 7.500000
v 4.060096 15.628378 5.827712
v -4.060096 15.628378 5.827712
v 4.060096 25.723469 5.827712
v -4.060096 25.723469 5.827712
v -4.217536 -5.327544 7.500000
v 4.217536 -5.327544 7.500000
v 4.217535 6.679409 7.500000
v -4.217535 6.679409 7.500000
v -4.217536 -5.327544 5.719513
v 4.217536 -5.327544 5.719513
v 4.217535 6.679409 5.719513
v -4.217535 6.679409 5.719513
vt 0.375000 0.000000
vt 0.625000 0.000000
vt 0.375000 0.250000
vt 0.625000 0.250000
vt 0.375000 0.500000
vt 0.625000 0.500000
vt 0.375000 0.750000
vt 0.625000 0.750000
vt 0.375000 1.000000
vt 0.625000 1.000000
vt 0.875000 0.000000
vt 0.875000 0.250000
vt 0.125000 0.000000
vt 0.125000 0.250000
vt 0.375000 0.000000
vt 0.625000 0.000000
vt 0.625000 0.250000
vt 0.375000 0.250000
vt 0.375000 0.133449
vt 0.125000 0.133449
vt 0.375000 0.616551
vt 0.625000 0.616551
vt 0.875000 0.133449
vt 0.625000 0.133449
vt 0.625000 0.133449
vt 0.375000 0.133449
vt 0.625000 0.133449
vt 0.875000 0.133449
vt 0.875000 0.250000
vt 0.625000 0.250000
vt 0.625000 0.133449
vt 0.875000 0.133449
vt 0.875000 0.250000
vt 0.625000 0.250000
vt 0.625000 0.000000
vt 0.875000 0.000000
vt 0.875000 0.133449
vt 0.625000 0.133449
vt 0.625000 0.000000
vt 0.875000 0.000000
vt 0.875000 0.133449
vt 0.625000 0.133449
vt 0.375000 0.616551
vt 0.625000 0.616551
vt 0.625000 0.750000
vt 0.375000 0.750000
vt 0.375000 0.616551
vt 0.625000 0.616551
vt 0.625000 0.750000
vt 0.375000 0.750000
vt 0.375000 0.500000
vt 0.625000 0.500000
vt 0.625000 0.616551
vt 0.375000 0.616551
vt 0.375000 0.500000
vt 0.625000 0.500000
vt 0.625000 0.616551
vt 0.375000 0.616551
vt 0.125000 0.133449
vt 0.375000 0.133449
vt 0.375000 0.250000
vt 0.125000 0.250000
vt 0.125000 0.133449
vt 0.375000 0.133449
vt 0.375000 0.250000
vt 0.125000 0.250000
vt 0.125000 0.000000
vt 0.375000 0.000000
vt 0.375000 0.133449
vt 0.125000 0.133449
vt 0.125000 0.000000
vt 0.375000 0.000000
vt 0.375000 0.133449
vt 0.125000 0.133449
vt 0.375000 0.133449
vt 0.625000 0.133449
vt 0.625000 0.250000
vt 0.375000 0.250000
vt 0.375000 0.133449
vt 0.625000 0.133449
vt 0.625000 0.250000
vt 0.375000 0.250000
vt 0.375000 0.000000
vt 0.625000 0.000000
vt 0.625000 0.133449
vt 0.375000 0.133449
vt 0.375000 0.000000
vt 0.625000 0.000000
vt 0.625000 0.133449
vt 0.375000 0.133449
vn 0.000000 0.000000 1.000000
vn 0.000000 0.000000 1.000000
vn 0.000000 0.000000 1.000000
vn 0.000000 0.000000 1.000000
vn 0.000000 1.000000 0.000000
vn 0.000000 1.000000 0.000000
vn 0.000000 1.000000 0.000000
vn 0.000000 1.000000 0.000000
vn 0.000000 0.000000 -1.000000
vn 0.000000 0.000000 -1.000000
vn 0.000000 0.000000 -1.000000
vn 0.000000 0.000000 -1.000000
vn 0.000000 -1.000000 0.000000
vn 0.000000 -1.000000 0.000000
vn 0.000000 -1.000000 0.000000
vn 0.000000 -1.000000 0.000000
vn 1.000000 0.000000 0.000000
vn 1.000000 0.000000 0.000000
vn 1.000000 0.000000 0.000000
vn 1.000000 0.000000 0.000000
vn -1.000000 0.000000 0.000000
vn -1.000000 0.000000 0.000000
vn -1.000000 0.000000 0.000000
vn -1.000000 0.000000 0.000000
vn 0.000000 0.000000 1.000000
vn 0.000000 0.000000 1.000000
vn 0.000000 0.000000 1.000000
vn 0.000000 0.000000 1.000000
vn 0.000000 0.000000 -1.000000
vn 0.000000 0.000000 -0.000000
vn 0.000000 0.000000 -0.000000
vn 0.000000 0.000000 -1.000000
vn 0.000000 0.000000 1.000000
vn 0.000000 0.000000 1.000000
vn 0.000000 0.000000 0.000000
vn 0.000000 0.000000 0.000000
vn 0.000000 0.000000 -0.000000
vn 0.000000 0.000000 -0.000000
vn 0.000000 0.000000 -1.000000
vn 0.000000 0.000000 -1.000000
vn -1.000000 0.000000 0.000000
vn -1.000000 0.000000 0.000000
vn -1.000000 0.000000 0.000000
vn -1.000000 0.000000 0.000000
vn 0.000000 0.000000 -1.000000
vn 0.000000 0.000000 -1.000000
vn 0.000000 0.000000 -1.000000
vn 0.000000 0.000000 -1.000000
vn 1.000000 0.000000 0.000000
vn 1.000000 0.000000 0.000000
vn 1.000000 0.000000 0.000000
vn 1.000000 0.000000 0.000000
vn 0.000000 0.000000 -0.000000
vn 0.000000 0.000000 -0.000000
vn 0.000000 0.000000 -1.000000
vn 0.000000 0.000000 -1.000000
vn 0.000000 0.000000 1.000000
vn 0.000000 0.000000 1.000000
vn 0.000000 0.000000 1.000000
vn 0.000000 0.000000 1.000000
vn 0.000000 0.000000 -1.000000
vn 0.000000 0.000000 -0.000000
vn 0.000000 0.000000 -0.000000
vn 0.000000 0.000000 -1.000000
vn 1.000000 0.000000 0.000000
vn 1.000000 0.000000 0.000000
vn 1.000000 0.000000 0.000000
vn 1.000000 0.000000 0.000000
vn 1.000000 0.000000 0.000000
vn 1.000000 0.000000 0.000000
vn 1.000000 0.000000 0.000000
vn 1.000000 0.000000 0.000000
vn 1.000000 0.000000 0.000000
vn 1.000000 0.000000 0.000000
vn 1.000000 0.000000 0.000000
vn 1.000000 0.000000 0.000000
vn 1.000000 0.000000 0.000000
vn 1.000000 0.000000 0.000000
vn 1.000000 0.000000 0.000000
vn 1.000000 0.000000 0.000000
vn 0.000000 1.000000 0.000000
vn 0.000000 1.000000 0.000000
vn 0.000000 1.000000 0.000000
vn 0.000000 1.000000 0.000000
vn 0.000000 0.000000 1.000000
vn 0.000000 0.000000 1.000000
vn 0.000000 0.000000 1.000000
vn 0.000000 0.000000 1.000000
vn 0.000000 -1.000000 0.000000
vn 0.000000 -1.000000 0.000000
vn 0.000000 -1.000000 0.000000
vn 0.000000 -1.000000 0.000000
vn 0.000000 0.000000 -1.000000
vn 0.000000 0.000000 -1.000000
vn 0.000000 0.000000 -1.000000
vn 0.000000 0.000000 -1.000000
vn 1.000000 0.000000 0.000000
vn 1.000000 0.000000 0.000000
vn 1.000000 0.000000 0.000000
vn 1.000000 0.000000 0.000000
vn 1.000000 0.000000 0.000000
vn 1.000000 0.000000 0.000000
vn 1.000000 0.000000 0.000000
vn 1.000000 0.000000 0.000000
vn 1.000000 0.000000 0.000000
vn 1.000000 0.000000 0.000000
vn 1.000000 0.000000 0.000000
vn 1.000000 0.000000 0.000000
vn 1.000000 0.000000 0.000000
vn 1.000000 0.000000 0.000000
vn 1.000000 0.000000 0.000000
vn 1.000000 0.000000 0.000000
vn 0.000000 1.000000 0.000000
vn 0.000000 1.000000 0.000000
vn 0.000000 1.000000 0.000000
vn 0.000000 1.000000 0.000000
vn 0.000000 0.000000 1.000000
vn 0.000000 0.000000 1.000000
vn 0.000000 0.000000 1.000000
vn 0.000000 0.000000 1.000000
vn 0.000000 -1.000000 0.000000
vn 0.000000 -1.000000 0.000000
vn 0.000000 -1.000000 0.000000
vn 0.000000 -1.000000 0.000000
vn 0.000000 0.000000 -1.000000
vn 0.000000 0.000000 -1.000000
vn 0.000000 0.000000 -1.000000
vn 0.000000 0.000000 -1.000000
vn 0.000000 0.000000 -1.000000
vn 0.000000 0.000000 -1.000000
vn 0.000000 0.000000 -1.000000
vn 0.000000 0.000000 -1.000000
vn 0.000000 0.000000 -1.000000
vn 0.000000 0.000000 -1.000000
vn 0.000000 0.000000 -1.000000
vn 0.000000 0.000000 -1.000000
vn 0.000000 0.000000 -1.000000
vn 0.000000 0.000000 -1.000000
vn 0.000000 0.000000 -1.000000
vn 0.000000 0.000000 -1.000000
vn 0.000000 0.000000 -1.000000
vn 0.000000 0.000000 -1.000000
vn 0.000000 0.000000 -1.000000
vn 0.000000 0.000000 -1.000000
vn 0.000000 -1.000000 0.000000
vn 0.000000 -1.000000 0.000000
vn 0.000000 -1.000000 0.000000
vn 0.000000 -1.000000 0.000000
vn -1.000000 0.000000 0.000000
vn -1.000000 0.000000 0.000000
vn -1.000000 0.000000 0.000000
vn -1.000000 0.000000 0.000000
vn 0.000000 1.000000 0.000000
vn 0.000000 1.000000 0.000000
vn 0.000000 1.000000 0.000000
vn 0.000000 1.000000 0.000000
vn 1.000000 0.000000 0.000000
vn 1.000000 0.000000 0.000000
vn 1.000000 0.000000 0.000000
vn 1.000000 0.000000 0.000000
vn 0.000000 0.000000 -1.000000
vn 0.000000 0.000000 -1.000000
vn 0.000000 0.000000 -1.000000
vn 0.000000 0.000000 -1.000000
vn 0.000000 0.000000 -1.000000
vn 0.000000 0.000000 -1.000000
vn 0.000000 0.000000 -1.000000
vn 0.000000 0.000000 -1.000000
vn 0.000000 0.000000 -1.000000
vn 0.000000 0.000000 -1.000000
vn 0.000000 0.000000 -1.000000
vn 0.000000 0.000000 -1.000000
vn 0.000000 0.000000 -1.000000
vn 0.000000 0.000000 -1.000000
vn 0.000000 0.000000 -1.000000
vn 0.000000 0.000000 -1.000000
vn 0.000000 -1.000000 0.000000
vn 0.000000 -1.000000 0.000000
vn 0.000000 -1.000000 0.000000
vn 0.000000 -1.000000 0.000000
vn -1.000000 0.000000 0.000000
vn -1.000000 0.000000 0.000000
vn -1.000000 0.000000 0.000000
vn -1.000000 0.000000 0.000000
vn 0.000000 1.000000 0.000000
vn 0.000000 1.000000 0.000000
vn 0.000000 1.000000 0.000000
vn 0.000000 1.000000 0.000000
vn 1.000000 0.000000 0.000000
vn 1.000000 0.000000 0.000000
vn 1.000000 0.000000 0.000000
vn 1.000000 0.000000 0.000000
vn -1.000000 0.000000 0.000000
vn -1.000000 0.000000 0.000000
vn -1.000000 0.000000 0.000000
vn -1.000000 0.000000 0.000000
vn -1.000000 0.000000 0.000000
vn -1.000000 0.000000 0.000000
vn -1.000000 0.000000 0.000000
vn -1.000000 0.000000 0.000000
vn -1.000000 0.000000 0.000000
vn -1.000000 0.000000 0.000000
vn -1.000000 0.000000 0.000000
vn -1.000000 0.000000 0.000000
vn -1.000000 0.000000 0.000000
vn -1.000000 0.000000 0.000000
vn -1.000000 0.000000 0.000000
vn -1.000000 0.000000 0.000000
vn 0.000000 1.000000 0.000000
vn 0.000000 1.000000 0.000000
vn 0.000000 1.000000 0.000000
vn 0.000000 1.000000 0.000000
vn 0.000000 0.000000 -1.000000
vn 0.000000 0.000000 -1.000000
vn 0.000000 0.000000 -1.000000
vn 0.000000 0.000000 -1.000000
vn 0.000000 -1.000000 0.000000
vn 0.000000 -1.000000 0.000000
vn 0.000000 -1.000000 0.000000
vn 0.000000 -1.000000 0.000000
vn 0.000000 0.000000 1.000000
vn 0.000000 0.000000 1.000000
vn 0.000000 0.000000 1.000000
vn 0.000000 0.000000 1.000000
vn -1.000000 0.000000 0.000000
vn -1.000000 0.000000 0.000000
vn -1.000000 0.000000 0.000000
vn -1.000000 0.000000 0.000000
vn -1.000000 0.000000 0.000000
vn -1.000000 0.000000 0.000000
vn -1.000000 0.000000 0.000000
vn -1.000000 0.000000 0.000000
vn -1.000000 0.000000 0.000000
vn -1.000000 0.000000 0.000000
vn -1.000000 0.000000 0.000000
vn -1.000000 0.000000 0.000000
vn -1.000000 0.000000 0.000000
vn -1.000000 0.000000 0.000000
vn -1.000000 0.000000 0.000000
vn -1.000000 0.000000 0.000000
vn 0.000000 1.000000 0.000000
vn 0.000000 1.000000 0.000000
vn 0.000000 1.000000 0.000000
vn 0.000000 1.000000 0.000000
vn 0.000000 0.000000 -1.000000
vn 0.000000 0.000000 -1.000000
vn 0.000000 0.000000 -1.000000
vn 0.000000 0.000000 -1.000000
vn 0.000000 -1.000000 0.000000
vn 0.000000 -1.000000 0.000000
vn 0.000000 -1.000000 0.000000
vn 0.000000 -1.000000 0.000000
vn 0.000000 0.000000 1.000000
vn 0.000000 0.000000 1.000000
vn 0.000000 0.000000 1.000000
vn 0.000000 0.000000 1.000000
vn 0.000000 0.000000 1.000000
vn 0.000000 0.000000 1.000000
vn 0.000000 0.000000 1.000000
vn 0.000000 0.000000 1.000000
vn 0.000000 0.000000 1.000000
vn 0.000000 0.000000 1.000000
vn 0.000000 0.000000 1.000000
vn 0.000000 0.000000 1.000000
vn 0.000000 0.000000 1.000000
vn 0.000000 0.000000 1.000000
vn 0.000000 0.000000 1.000000
vn 0.000000 0.000000 1.000000
vn 0.000000 0.000000 1.000000
vn 0.000000 0.000000 1.000000
vn 0.000000 0.000000 1.000000
vn 0.000000 0.000000 1.000000
vn 0.000000 1.000000 0.000000
vn 0.000000 1.000000 0.000000
vn 0.000000 1.000000 0.000000
vn 0.000000 1.000000 0.000000
vn -1.000000 0.000000 0.000000
vn -1.000000 0.000000 0.000000
vn -1.000000 0.000000 0.000000
vn -1.000000 0.000000 0.000000
vn 0.000000 -1.000000 0.000000
vn 0.000000 -1.000000 0.000000
vn 0.000000 -1.000000 0.000000
vn 0.000000 -1.000000 0.000000
vn 1.000000 0.000000 0.000000
vn 1.000000 0.000000 0.000000
vn 1.000000 0.000000 0.000000
vn 1.000000 0.000000 0.000000
vn 0.000000 0.000000 1.000000
vn 0.000000 0.000000 1.000000
vn 0.000000 0.000000 1.000000
vn 0.000000 0.000000 1.000000
vn 0.000000 0.000000 1.000000
vn 0.000000 0.000000 1.000000
vn 0.000000 0.000000 1.000000
vn 0.000000 0.000000 1.000000
vn 0.000000 0.000000 1.000000
vn 0.000000 0.000000 1.000000
vn 0.000000 0.000000 1.000000
vn 0.000000 0.000000 1.000000
vn 0.000000 0.000000 1.000000
vn 0.000000 0.000000 1.000000
vn 0.000000 0.000000 1.000000
vn 0.000000 0.000000 1.000000
vn 0.000000 1.000000 0.000000
vn 0.000000 1.000000 0.000000
vn 0.000000 1.000000 0.000000
vn 0.000000 1.000000 0.000000
vn -1.000000 -0.000000 0.000000
vn -1.000000 -0.000000 0.000000
vn -1.000000 -0.000000 0.000000
vn -1.000000 -0.000000 0.000000
vn 0.000000 -1.000000 0.000000
vn 0.000000 -1.000000 0.000000
vn 0.000000 -1.000000 0.000000
vn 0.000000 -1.000000 0.000000
vn 1.000000 -0.000000 0.000000
vn 1.000000 -0.000000 0.000000
vn 1.000000 -0.000000 0.000000
vn 1.000000 -0.000000 0.000000
s off
g pCube1
usemtl initialShadingGroup
f 79/87/1 80/88/2 81/89/3 82/90/4
f 3/3/5 4/4/6 6/6/7 5/5/8
f 39/47/9 40/48/10 41/49/11 42/50/12
f 7/7/13 8/8/14 2/10/15 1/9/16
f 32/39/17 31/40/18 33/41/19 34/42/20
f 63/71/21 64/72/22 65/73/23 66/74/24
f 1/1/25 2/2/26 10/16/27 9/15/28
f 2/2/29 16/24/30 17/25/31 10/16/32
f 4/4/33 3/3/34 12/18/35 11/17/36
f 18/26/37 13/19/38 1/1/39 9/15/40
f 56/63/41 55/64/42 57/65/43 58/66/44
f 47/55/45 48/56/46 49/57/47 50/58/48
f 24/31/49 23/32/50 25/33/51 26/34/52
f 17/25/53 16/24/54 4/4/55 11/17/56
f 72/79/57 71/80/58 73/81/59 74/82/60
f 3/3/61 13/19/62 18/26/63 12/18/64
f 16/24/65 15/23/66 19/28/67 20/27/68
f 15/23/69 6/12/70 21/29/71 19/28/72
f 6/12/73 4/4/74 22/30/75 21/29/76
f 4/4/77 16/24/78 20/27/79 22/30/80
f 20/27/81 19/28/82 23/32/83 24/31/84
f 19/28/85 21/29/86 25/33/87 23/32/88
f 21/29/89 22/30/90 26/34/91 25/33/92
f 22/30/93 20/27/94 24/31/95 26/34/96
f 2/2/97 8/11/98 27/36/99 28/35/100
f 8/11/101 15/23/102 29/37/103 27/36/104
f 15/23/105 16/24/106 30/38/107 29/37/108
f 16/24/109 2/2/110 28/35/111 30/38/112
f 28/35/113 27/36/114 31/40/115 32/39/116
f 27/36/117 29/37/118 33/41/119 31/40/120
f 29/37/121 30/38/122 34/42/123 33/41/124
f 30/38/125 28/35/126 32/39/127 34/42/128
f 14/21/129 15/22/130 36/44/131 35/43/132
f 15/22/133 8/8/134 37/45/135 36/44/136
f 8/8/137 7/7/138 38/46/139 37/45/140
f 7/7/141 14/21/142 35/43/143 38/46/144
f 35/43/145 36/44/146 40/48/147 39/47/148
f 36/44/149 37/45/150 41/49/151 40/48/152
f 37/45/153 38/46/154 42/50/155 41/49/156
f 38/46/157 35/43/158 39/47/159 42/50/160
f 5/5/161 6/6/162 44/52/163 43/51/164
f 6/6/165 15/22/166 45/53/167 44/52/168
f 15/22/169 14/21/170 46/54/171 45/53/172
f 14/21/173 5/5/174 43/51/175 46/54/176
f 43/51/177 44/52/178 48/56/179 47/55/180
f 44/52/181 45/53/182 49/57/183 48/56/184
f 45/53/185 46/54/186 50/58/187 49/57/188
f 46/54/189 43/51/190 47/55/191 50/58/192
f 14/20/193 13/19/194 51/60/195 52/59/196
f 13/19/197 3/3/198 53/61/199 51/60/200
f 3/3/201 5/14/202 54/62/203 53/61/204
f 5/14/205 14/20/206 52/59/207 54/62/208
f 52/59/209 51/60/210 55/64/211 56/63/212
f 51/60/213 53/61/214 57/65/215 55/64/216
f 53/61/217 54/62/218 58/66/219 57/65/220
f 54/62/221 52/59/222 56/63/223 58/66/224
f 7/13/225 1/1/226 60/68/227 59/67/228
f 1/1/229 13/19/230 61/69/231 60/68/232
f 13/19/233 14/20/234 62/70/235 61/69/236
f 14/20/237 7/13/238 59/67/239 62/70/240
f 59/67/241 60/68/242 64/72/243 63/71/244
f 60/68/245 61/69/246 65/73/247 64/72/248
f 61/69/249 62/70/250 66/74/251 65/73/252
f 62/70/253 59/67/254 63/71/255 66/74/256
f 18/26/257 17/25/258 67/76/259 68/75/260
f 17/25/261 11/17/262 69/77/263 67/76/264
f 11/17/265 12/18/266 70/78/267 69/77/268
f 12/18/269 18/26/270 68/75/271 70/78/272
f 68/75/273 67/76/274 71/80/275 72/79/276
f 67/76/277 69/77/278 73/81/279 71/80/280
f 69/77/281 70/78/282 74/82/283 73/81/284
f 70/78/285 68/75/286 72/79/287 74/82/288
f 9/15/289 10/16/290 76/84/291 75/83/292
f 10/16/293 17/25/294 77/85/295 76/84/296
f 17/25/297 18/26/298 78/86/299 77/85/300
f 18/26/301 9/15/302 75/83/303 78/86/304
f 75/83/305 76/84/306 80/88/307 79/87/308
f 76/84/309 77/85/310 81/89/311 80/88/312
f 77/85/313 78/86/314 82/90/315 81/89/316
f 78/86/317 75/83/318 79/87/319 82/90/320
